<svg height="50px" viewBox="-8 0 480 480.62369" 
xmlns="http://www.w3.org/2000/svg"><g fill="#556080">
<path d="m368.9375 272.625c-17.675781 0-32 14.324219-32 32v8h64v-8c0-17.675781-14.328125-32-32-32zm0 0"/>

<path d="m224.9375 8.625c-84.433594.058594-161.085938 49.304688-196.238281 126.070312-35.152344 76.761719-22.355469 166.972657 32.757812 230.929688 55.117188 63.960938
 142.445313 89.945312 223.558594 66.519531l3.441406-34.882812 8.480469-84.636719h40v-8c0-17.675781 14.324219-32 32-32 17.671875 0 32 14.324219 32 32v8h21.277344c29.8125-66.828125 
 23.765625-144.203125-16.070313-205.585938-39.832031-61.378906-108.035156-98.421874-181.207031-98.414062zm71.757812 192-10.480468 
 10.480469-10.480469-10.480469-34.796875-34.722656v178.722656h-32v-178.722656l-34.800781 
 34.722656-10.480469 10.480469-10.480469-10.480469-12.160156-12.082031 83.921875-83.917969 83.917969 83.917969zm0 0"/>
 
 <path d="m422.214844 312.625h-21.277344v24-24h-64v24-24h-40l-8.480469 84.636719-3.441406 34.882812-.878906 
 8.480469-3.199219 32h176l-16-160zm0 0"/></g>
 
 <path id="item2_perfil_cor1" d="m448.9375 311.824219c-.414062-4.105469-3.878906-7.222657-8-7.199219h-6.738281c9.808593-25.53125 
 14.804687-52.652344 14.738281-80 .128906-95.484375-60.195312-180.585938-150.335938-212.074219-90.136718-31.492187-190.332031-2.46875-249.6875 
 72.324219-59.351562 74.792969-64.851562 178.960938-13.707031 259.589844s147.726563 120.042968 240.679688 98.222656l-2.910157 29.136719c-.226562 2.25.507813
 4.488281 2.027344 6.164062 1.515625 1.679688 3.671875 2.636719 5.933594 2.636719h176c2.265625.011719 4.433594-.941406 5.957031-2.621094 
 1.527344-1.675781 2.269531-3.921875 2.042969-6.179687zm-224 120.800781c-114.878906 0-208-93.125-208-208s93.121094-208 208-208c114.875 0 208 93.125 
 208 208 .066406 27.464844-5.375 54.667969-16 80h-8c0-22.09375-17.910156-40-40-40-22.09375 0-40 17.90625-40 40h-32c-4.109375 0-7.550781 3.109375-7.960938 
 7.199219l-11.410156 114.078125c-17.183594 4.472656-34.871094 6.730468-52.628906 6.722656zm168-128h-48c0-13.257812 10.742188-24 24-24 
 13.253906 0 24 10.742188 24 24zm-103.203125 160 14.402344-144h24.800781v16c0 4.417969 3.578125 8 8 8 4.417969 0 8-3.582031 8-8v-16h48v16c0 
 4.417969 3.578125 8 8 8 4.417969 0 8-3.582031 8-8v-16h24.796875l14.402344 144zm0 0" fill="#E7ECED"/>
 
 <path d="m240.9375 352.625h-32c-4.421875 0-8-3.582031-8-8v-159.441406l-31.625 31.574218c-3.125 3.125-8.1875 3.125-11.3125 
 0l-22.625-22.535156c-1.507812-1.5-2.355469-3.539062-2.355469-5.667968 0-2.125.847657-4.164063 2.355469-5.667969l83.921875-83.917969c3.121094-3.125 
 8.1875-3.125 11.3125 0l83.925781 83.917969c1.507813 1.503906 2.355469 3.542969 2.355469 5.667969 0 2.128906-.847656 4.167968-2.355469 5.667968l-22.625 
 22.535156c-3.121094 3.125-8.1875 3.125-11.308594 0l-31.664062-31.574218v159.441406c0 4.417969-3.582031 8-8 8zm-24-16h16v-170.722656c0-3.230469
 1.945312-6.148438 4.933594-7.386719 2.984375-1.238281 6.421875-.558594 8.710937 1.722656l39.632813 39.585938 11.304687-11.273438-72.582031-72.613281-72.585938
 72.582031 11.304688 11.304688 39.632812-39.550781c2.285157-2.28125 5.714844-2.960938 8.699219-1.730469 2.980469 1.230469 4.933594 4.132812 4.949219 7.359375zm0 0" 
 fill="#E7ECED"/>
 
 <path d="m224.9375 400.625c-97.203125 0-176-78.800781-176-176 0-97.203125 78.796875-176 176-176 97.199219 0 176 78.796875 176 176 0 4.417969-3.582031 8-8 
 8-4.421875 0-8-3.582031-8-8 0-88.367188-71.636719-160-160-160-88.367188 0-160 71.632812-160 160 0 88.363281 71.632812 160 160 160 4.417969 0 8 3.582031 8 8s-3.582031 8-8 8zm0 0"
 fill="#E7ECED"/></svg>