<svg id="Layer_1" enable-background="new 0 0 128 128" height="50px" viewBox="0 0 128 128" xmlns="http://www.w3.org/2000/svg"><g><g>


 
 <path d="m100.025 10.735h-76.05c-1.59 0-2.88 1.29-2.88 2.88v91.21l11.04 11.04h67.89c1.59 0 2.88-1.29 
 2.88-2.89v-99.36c0-1.59-1.29-2.88-2.88-2.88zm-60.397 12.392c-2.317 0-4.195-1.878-4.195-4.195s1.878-4.195 
 4.195-4.195 4.195 1.878 4.195 4.195-1.879 4.195-4.195 4.195zm22.372 0c-2.317 0-4.195-1.878-4.195-4.195s1.878-4.195 
 4.195-4.195 4.195 1.878 4.195 4.195-1.878 4.195-4.195 4.195zm22.372 0c-2.317 0-4.195-1.878-4.195-4.195s1.878-4.195 
 4.195-4.195 4.195 1.878 4.195 4.195-1.878 4.195-4.195 4.195z"
 fill="#556080"/></g><g><g>
 
 
 <path d="m49.065 62.516h-12c-2.761 0-5 2.239-5 5v2.78c0 2.761 2.239 5 5 5h12c2.761 0 5-2.239 5-5v-2.78c0-2.761-2.239-5-5-5z" 
 fill="#E7ECED"/><path d="m86.936 62.516h-12c-2.761 0-5 2.239-5 5v2.78c0 2.761 2.239 5 5 5h12c2.761 0 5-2.239 5-5v-2.78c0-2.761-2.239-5-5-5z" 
 fill="#E7ECED"/><g>
 
 <path d="m68 81.406h-12c-2.761 0-5 2.239-5 5v2.78c0 2.761 2.239 5 5 5h12c2.761 0 5-2.239 5-5v-2.78c0-2.762-2.239-5-5-5z" 
 fill="#E7ECED"/><g fill="#3a2c60">
 
 <path d="m21.095 40.75c.552 0 1-.448 1-1v-5.875c0-.552-.448-1-1-1s-1 .448-1 1v5.875c0 .552.448 1 1 1z"/>
 
 <path d="m100.025 9.734h-14.81v-1.599c0-.552-.448-1-1-1s-1 .448-1 1v1.599h-20.215v-1.599c0-.552-.448-1-1-1s-1 .448-1 1v1.599h-20.214v-1.599c0-.552-.448-1-1-1s-1 .448-1
 1v1.599h-14.811c-2.139 0-3.88 1.741-3.88 3.88v16.136c0 .552.448 1 1 1s1-.448 1-1v-16.135c0-1.037.843-1.88 1.88-1.88h14.811v2.089c-2.463.406-4.353 2.534-4.353 5.11 
 0 2.864 2.331 5.195 5.195 5.195s5.195-2.331 5.195-5.195c0-2.465-1.73-4.525-4.037-5.054v-2.144h20.214v2.104c-2.387.468-4.195 2.572-4.195 5.094 0 2.864 2.331 5.195 5.195
 5.195s5.195-2.331 5.195-5.195c0-2.522-1.808-4.626-4.195-5.094v-2.104h20.215v2.144c-2.307.529-4.037 2.589-4.037 5.054 0 2.864 2.331
 5.195 5.195 5.195s5.195-2.331 5.195-5.195c0-2.576-1.89-4.704-4.353-5.11v-2.089h14.81c1.037 0 1.88.844 1.88 1.88v99.36c0 1.042-.844
 1.89-1.88 1.89h-66.89v-7.15c0-2.145-1.741-3.89-3.88-3.89h-7.16v-60.075c0-.552-.448-1-1-1s-1 .448-1 1v61.075c0 .265.105.52.293.707l11.04 
 11.04c.188.188.442.293.707.293h67.89c2.14 0 3.88-1.745 3.88-3.89v-99.36c0-2.14-1.741-3.881-3.88-3.881zm-57.202 
 9.199c0 1.762-1.433 3.195-3.195 3.195s-3.195-1.433-3.195-3.195c0-1.468 1.001-2.695 2.353-3.068v1.565c0 .552.448 1 
 1 1s1-.448 1-1v-1.467c1.189.465 2.037 1.617 2.037 2.97zm22.372 0c0 1.762-1.433 3.195-3.195 3.195s-3.195-1.433-3.195-3.195c0-1.41.925-2.596 
 2.195-3.019v1.516c0 .552.448 1 1 1s1-.448 1-1v-1.516c1.27.422 2.195 1.608 2.195 3.019zm22.372 0c0 1.762-1.433 3.195-3.195 3.195s-3.195-1.433-3.195-3.195c0-1.352.848-2.504 
 2.037-2.97v1.467c0 .552.448 1 1 1s1-.448 1-1v-1.565c1.352.372 2.353 1.599 2.353 3.068zm-56.432 88.782v5.736l-7.626-7.626h5.746c1.037 0 1.88.848 1.88 1.89z"/>
 
 <path d="m37.064 61.517c-3.309 0-6 2.691-6 6v2.78c0 3.309 
 2.691 6 6 6h12c3.309 0 6-2.691 6-6v-2.78c0-3.309-2.691-6-6-6h-3.586l6.683-6.683c2.469 1.178 5.5 1.911 8.838 2.034v23.538h-5c-3.309 0-6 2.691-6 6v2.78c0 
 3.309 2.691 6 6 6h12c3.309 0 6-2.691 6-6v-2.78c0-3.309-2.691-6-6-6h-5v-23.538c3.338-.124 6.369-.856 8.839-2.034l6.683 6.683h-3.586c-3.309 0-6 2.691-6 6v2.78c0 3.309 
 2.691 6 6 6h12c3.309 0 6-2.691 6-6v-2.78c0-3.309-2.691-6-6-6h-5.585l-7.689-7.689c2.847-1.848 4.585-4.388 4.585-7.236 0-5.78-7.136-10.308-16.245-10.308s-16.245 4.528-16.245 
 10.308c0 2.848 1.738 5.388 4.584 7.236l-7.689 7.689zm34.936 24.889v2.78c0 2.206-1.794 4-4 4h-12c-2.206 0-4-1.794-4-4v-2.78c0-2.206 1.794-4 4-4h12c2.206 0 4 1.794 4 
 4zm18.935-18.889v2.78c0 2.206-1.794 4-4 4h-12c-2.206 0-4-1.794-4-4v-2.78c0-2.206 1.794-4 4-4h12c2.206 0 4 1.794 4 4zm-43.18-20.926c0-4.503 6.523-8.308 14.245-8.308s14.245 
 3.805 14.245 8.308-6.523 8.308-14.245 8.308c-7.721 0-14.245-3.804-14.245-8.308zm5.309 20.926v2.78c0 2.206-1.794 4-4 4h-12c-2.206 0-4-1.794-4-4v-2.78c0-2.206 1.794-4 4-4h12c2.206 
 0 4 1.794 4 4z"/></g></g></g></g></g>
 
 </svg>